# generated from PmQm by Jehee Lee
:FULLY-SPECIFIED
:DEGREES
514
root 106.7008103 39.52645185 -11.10897089 -2.107273927 -58.1523109 2.938758117
RightUpLeg -27.55974364 -2.698054015 0.2309616308
RightLeg 45.16117358 4.125230353 -4.351169099
RightFoot -2.880783077 17.73309966 -2.472713422
RightToes 2.32829e-010 -1.59028e-015 9.93923e-017
Spine -6.845519161 -4.022498645 -8.720262644
Spine1 10.81351879 -4.81636505 2.402248215
HEad -8.700458735 3.742787612 1.490087455
LeftShoulder1 9.93923e-017 0 1.22299e-017
LeftArm 30.01286693 20.50987836 -77.73300493
LeftForeArm -49.90317989 -28.37589464 18.07386607
LeftHand 0.874162 5.96507 -3.53657
RightShoulder 1.98785e-016 -4.96962e-017 1.55301e-017
RightArm 28.9357223 -58.30468862 81.8964138
RightForeArm -44.13277519 19.34946355 -8.402974779
RightHand 1.06596 -10.3388 -3.23031
LeftUpLeg -4.601296748 1.032325298 4.972320177
LeftLeg 17.12776721 0 0
LeftFoot -8.983281222 0.8425704927 -9.432655098
LeftToes 8.82235e-011 9.04645e-011 1.87288e-011
515
root 105.4356559 39.4131 -10.62793086 -2.044544276 -58.95263686 2.832859607
RightUpLeg -28.7622018 -3.791930367 0.6618299169
RightLeg 36.16018427 4.538674634 -3.278626887
RightFoot -1.805185484 14.05135739 -0.09152737261
RightToes 2.32829e-010 -1.59028e-015 9.93923e-017
Spine -6.99225 -4.80394 -9.49489
Spine1 10.8103 -5.72047 3.70045
HEad -8.50494 4.3499 1.50706
LeftShoulder1 9.93923e-017 0 1.22299e-017
LeftArm 29.324 17.2202 -77.0933
LeftForeArm -48.1612 -29.8036 18.6995
LeftHand 0.872868 5.99207 -3.07255
RightShoulder 1.98785e-016 -4.96962e-017 1.55301e-017
RightArm 28.776 -60.6454 79.5323
RightForeArm -43.3166 19.3197 -8.73957
RightHand 1.06334 -10.2749 -3.3763
LeftUpLeg -1.94934051 0.5925845601 5.478365319
LeftLeg 16.48198821 0 0
LeftFoot -10.28182802 1.907365811 -9.742728961
LeftToes 8.82235e-011 9.04645e-011 1.87288e-011
516
root 104.1510192 39.2327 -10.14207445 -2.049995225 -60.18763402 2.956076866
RightUpLeg -29.11334067 -3.533797232 0.7710417717
RightLeg 25.51832132 4.042516221 -2.425152112
RightFoot -0.1229310524 10.65368622 1.804992061
RightToes 2.32829e-010 -1.59028e-015 9.93923e-017
Spine -7.65058 -5.2852 -9.75784
Spine1 11.3122 -6.21112 4.32768
HEad -8.52028 4.71785 1.51934
LeftShoulder1 9.93923e-017 0 1.22299e-017
LeftArm 29.4603 14.1658 -76.6241
LeftForeArm -47.981 -30.6495 19.0576
LeftHand 0.885736 6.13897 -2.34913
RightShoulder 1.98785e-016 -4.96962e-017 1.55301e-017
RightArm 27.6383 -62.1936 77.3537
RightForeArm -41.7608 19.1113 -8.25781
RightHand 1.03651 -10.1069 -3.19424
LeftUpLeg 0.4878659041 -0.001359455879 5.754494588
LeftLeg 16.28417536 0 0
LeftFoot -11.64032285 3.59773326 -9.860816977
LeftToes 8.82235e-011 9.04645e-011 1.87288e-011
517
root 102.8343577 39.0802 -9.626595228 -1.698828685 -61.44300244 2.771208781
RightUpLeg -28.38089516 -0.8472437629 -0.08590717931
RightLeg 13.50424432 1.63171416 -1.118823645
RightFoot 1.644207953 7.781144692 2.795342242
RightToes 2.32829e-010 -1.59028e-015 9.93923e-017
Spine -8.6081 -5.6719 -9.68894
Spine1 12.1741 -6.65675 4.99614
HEad -8.60171 4.91217 1.54686
LeftShoulder1 9.93923e-017 0 1.22299e-017
LeftArm 29.7915 11.8395 -76.3575
LeftForeArm -47.9949 -30.8542 19.1422
LeftHand 0.888198 6.19945 -2.12654
RightShoulder 1.98785e-016 -4.96962e-017 1.55301e-017
RightArm 26.0322 -63.0557 75.5544
RightForeArm -39.6685 18.7275 -7.09118
RightHand 1.04538 -10.2148 -3.06739
LeftUpLeg 3.460948425 -0.3562651569 6.017560328
LeftLeg 14.90688645 0 0
LeftFoot -12.37322323 5.052658515 -10.7475495
LeftToes 8.82235e-011 9.04645e-011 1.87288e-011
518
root 101.434585 38.8762 -9.030959121 -1.736338613 -62.5985569 3.008292495
RightUpLeg -27.67770245 2.450968894 -1.681419039
RightLeg 3.679529298 -1.01131595 0.157802708
RightFoot 1.815654393 5.562531204 3.519481635
RightToes 2.32829e-010 -1.59028e-015 9.93923e-017
Spine -9.49751 -6.05755 -10.1279
Spine1 12.8917 -7.15563 5.92882
HEad -8.55562 5.05889 1.51876
LeftShoulder1 9.93923e-017 0 1.22299e-017
LeftArm 29.9484 10.6982 -76.4209
LeftForeArm -47.6176 -30.435 18.9857
LeftHand 0.867906 6.04462 -1.99351
RightShoulder 1.98785e-016 -4.96962e-017 1.55301e-017
RightArm 23.3053 -63.3984 74.2572
RightForeArm -36.4712 18.0456 -5.27696
RightHand 1.09058 -10.5989 -3.03782
LeftUpLeg 6.845477587 -0.2912263897 6.10251955
LeftLeg 13.12710851 0 0
LeftFoot -12.64994348 5.680118939 -13.0739846
LeftToes 8.82235e-011 9.04645e-011 1.87288e-011
519
root 99.92847727 38.601 -8.35149834 -2.39250497 -64.08211829 3.894174618
RightUpLeg -28.71571274 2.520842985 -1.900768747
RightLeg 1.220313363 -0.1564767151 -0.03120072435
RightFoot -0.6933040408 4.009877476 4.807407272
RightToes 2.32829e-010 -1.59028e-015 9.93923e-017
Spine -10.2439 -6.31079 -10.7884
Spine1 13.3337 -7.44763 6.66218
HEad -8.54849 5.23696 1.35208
LeftShoulder1 9.93923e-017 0 1.22299e-017
LeftArm 29.7653 10.9109 -76.8662
LeftForeArm -47.4502 -29.5983 18.6497
LeftHand 0.826019 5.78296 -1.20192
RightShoulder 1.98785e-016 -4.96962e-017 1.55301e-017
RightArm 18.8351 -63.2616 73.5959
RightForeArm -32.1964 17.001 -3.12863
RightHand 1.1245 -10.9169 -2.9294
LeftUpLeg 10.42330955 -0.002128541474 5.924644163
LeftLeg 11.69846186 0 0
LeftFoot -12.12429207 5.945516221 -16.00921992
LeftToes 8.82235e-011 9.04645e-011 1.87288e-011
520
root 98.37038552 38.4189 -7.651510855 -1.738991677 -66.01352247 3.341407191
RightUpLeg -29.91925315 2.896198266 -1.269287271
RightLeg 1.858433306 0 0
RightFoot -0.7008322127 3.191407769 5.160504019
RightToes 2.32829e-010 -1.59028e-015 9.93923e-017
Spine -10.7843 -6.26734 -10.1272
Spine1 13.8011 -7.57906 7.00812
HEad -8.70347 5.48074 1.07417
LeftShoulder1 9.93923e-017 0 1.22299e-017
LeftArm 29.2754 12.6124 -77.5387
LeftForeArm -48.1855 -28.5891 18.2097
LeftHand 0.801969 5.68333 -0.307163
RightShoulder 1.98785e-016 -4.96962e-017 1.55301e-017
RightArm 13.7765 -62.7281 73.6493
RightForeArm -28.2108 15.8837 -1.35653
RightHand 1.12705 -10.9789 -2.80964
LeftUpLeg 14.40887114 0.1703285399 6.067632158
LeftLeg 9.414747836 0 0
LeftFoot -9.954974748 6.909673986 -18.90834574
LeftToes 8.82235e-011 9.04645e-011 1.87288e-011
521
root 96.7126826 38.2878 -6.898897663 0.6855453047 -67.67917193 0.7991145429
RightUpLeg -28.67433766 3.930085251 0.3113707713
RightLeg 2.844962676 0 0
RightFoot 4.043805843 3.356389534 3.366390993
RightToes 2.32829e-010 -1.59028e-015 9.93923e-017
Spine -11.0823 -6.32863 -8.25998
Spine1 14.0797 -7.86548 7.06816
HEad -8.76553 5.69424 0.709591
LeftShoulder1 9.93923e-017 0 1.22299e-017
LeftArm 29.0949 15.9192 -78.3907
LeftForeArm -49.8271 -27.3878 17.7096
LeftHand 0.82302 5.83404 -0.371178
RightShoulder 1.98785e-016 -4.96962e-017 1.55301e-017
RightArm 10.2148 -62.1444 74.3148
RightForeArm -26.0691 15.2511 -0.567928
RightHand 1.12095 -10.8908 -2.91922
LeftUpLeg 18.49910905 -0.3007695575 6.699776839
LeftLeg 6.831188713 0 0
LeftFoot -6.583878673 8.976642272 -23.0031829
LeftToes 8.82235e-011 9.04645e-011 1.87288e-011
522
root 95.0080881 38.165 -6.105681754 5.237410014 -68.75623239 -4.189295624
RightUpLeg -28.81511828 5.019414928 1.868644608
RightLeg 8.186865028 0 0
RightFoot 8.140524688 4.088847464 0.8005741974
RightToes 2.32829e-010 -1.59028e-015 9.93923e-017
Spine -10.9399 -6.41197 -5.48148
Spine1 13.8472 -8.17579 6.99416
HEad -8.70126 5.58694 0.205254
LeftShoulder1 9.93923e-017 0 1.22299e-017
LeftArm 29.0531 20.3477 -79.6497
LeftForeArm -50.8804 -25.8241 16.4731
LeftHand 0.855054 6.00922 -1.12265
RightShoulder 1.98785e-016 -4.96962e-017 1.55301e-017
RightArm 8.52088 -61.6776 75.5044
RightForeArm -25.8572 15.2745 -0.718439
RightHand 1.12223 -10.8038 -3.2164
LeftUpLeg 20.12031944 -2.31038913 8.201807412
LeftLeg 8.999226775 0 0
LeftFoot -2.747092919 12.11180549 -28.96243408
LeftToes 8.82235e-011 9.04645e-011 1.87288e-011
523
root 93.37018406 38.0808 -5.337921983 11.47985139 -69.66455106 -11.18247873
RightUpLeg -28.80486575 5.432064635 4.113747759
RightLeg 13.78932816 0 0
RightFoot 9.03525388 6.07215109 -0.8323525198
RightToes 2.32829e-010 -1.59028e-015 9.93923e-017
Spine -10.1178 -6.00399 -1.72661
Spine1 13.3684 -7.93258 6.7795
HEad -9.08561 4.90566 -0.295565
LeftShoulder1 9.93923e-017 0 1.22299e-017
LeftArm 24.5905 24.621 -81.2319
LeftForeArm -46.0359 -23.8681 12.0075
LeftHand 0.858088 6.00119 -1.52961
RightShoulder 1.98785e-016 -4.96962e-017 1.55301e-017
RightArm 7.0644 -60.6268 77.2965
RightForeArm -26.1256 15.4337 -1.01533
RightHand 1.12325 -10.7692 -3.33988
LeftUpLeg 18.33679693 -4.033174226 11.47077142
LeftLeg 17.48323918 0 0
LeftFoot 4.925646946 14.46871583 -33.66235613
LeftToes 8.82235e-011 9.04645e-011 1.87288e-011
524
root 91.8976786 37.9969 -4.643831763 18.00851949 -70.65615916 -18.53679949
RightUpLeg -28.4568369 4.479541896 6.612595704
RightLeg 19.23436544 0 0
RightFoot 5.8288547 9.074915872 -1.961922831
RightToes 2.32829e-010 -1.59028e-015 9.93923e-017
Spine -8.85864 -5.1147 2.15902
Spine1 13.2645 -6.98564 6.37604
HEad -10.1836 3.71447 -0.298579
LeftShoulder1 9.93923e-017 0 1.22299e-017
LeftArm 13.6046 27.8414 -82.5725
LeftForeArm -33.7381 -20.3283 4.26896
LeftHand 0.85281 5.94591 -1.68942
RightShoulder 1.98785e-016 -4.96962e-017 1.55301e-017
RightArm 4.79104 -57.8585 79.5258
RightForeArm -25.3247 15.0762 -0.454751
RightHand 1.12097 -10.7754 -3.21477
LeftUpLeg 14.4450734 -5.055751709 15.69868611
LeftLeg 28.88308118 0 0
LeftFoot 16.19534725 16.12066112 -34.64520323
LeftToes 8.82235e-011 9.04645e-011 1.87288e-011
